# xmcd
#
# Track frame offsets:
#	150
#	13083
#	28746
#	41664
#	55749
#	71075
#	82029
#	96904
#	110168
#	129964
#	144247
#	161411
#	178295
#	194385
#	209762
#
# Disc length: 2999 seconds
#
# Revision: 0
# Processed by: cddbd v1.5.2PL0 Copyright (c) Steve Scherf et al.
# Submitted via: audiograbber 1.83.01
#
DISCID=dd0bb50f
DTITLE=Runaway Dixie - Face The Wind
DYEAR=2019
DGENRE=Country
TTITLE0=Face The Wind
TTITLE1=Fishin' In The Dark
TTITLE2=Red Flowers
TTITLE3=Midnight Special
TTITLE4=Walk Beside Me
TTITLE5=Smokey Mountain Boogie
TTITLE6=Meant To Be
TTITLE7=Tele Rambler
TTITLE8=Put Your Hand In the Hand
TTITLE9=Long Black Veil
TTITLE10=Muleskinner Blues
TTITLE11=Golden Rails
TTITLE12=Texas When I Die
TTITLE13=What I Did
TTITLE14=Wayfarin'  Stranger
EXTD=
EXTT0=
EXTT1=
EXTT2=
EXTT3=
EXTT4=
EXTT5=
EXTT6=
EXTT7=
EXTT8=
EXTT9=
EXTT10=
EXTT11=
EXTT12=
EXTT13=
EXTT14=
PLAYORDER=
